<?xml version="1.0" encoding="utf-8"?>
<!-- Generator: Adobe Illustrator 26.0.0, SVG Export Plug-In . SVG Version: 6.00 Build 0)  -->
<svg version="1.1" id="Layer_1" xmlns="http://www.w3.org/2000/svg" xmlns:xlink="http://www.w3.org/1999/xlink" x="0px" y="0px"
	 viewBox="0 0 1132.1 153.2" style="enable-background:new 0 0 1132.1 153.2;" xml:space="preserve">
<style type="text/css">
	.st0{fill:#FFFFFF;}
</style>
<g>
	<polygon class="st0" points="0,0 0,153.2 118.1,78.3 	"/>
	<g>
		<g>
			<path class="st0" d="M64.6,44V13.6h122.2V44h-31.4v89.7H117V44H64.6z"/>
			<path class="st0" d="M225.3,13.6v45h63.7v-45h38.6v120h-38.6V86.9h-63.7v46.8h-38.6v-120H225.3z"/>
			<path class="st0" d="M465.8,41.2h-82.6v17.4h83.1v28.6h-83.1v18.6h83.6v27.9H345v-120h120.8L465.8,41.2L465.8,41.2z"/>
		</g>
		<g>
			<path class="st0" d="M635.3,112.9l-9.2,20.8h-38.6l54.5-120h50.8l56.3,120h-41.1l-9.4-20.8H635.3L635.3,112.9z M647.1,86.5h39.8
				l-20.2-44.8L647.1,86.5z"/>
			<path class="st0" d="M894.3,87c-0.3,20.3-14.3,48.4-70.8,48.4h-7.4c-58.6,0-72.3-35.8-72.3-59.8v-4.8c0-24.3,13.5-59.2,72.3-59.2
				h7.4c55.4,0,70.1,25.6,70.8,46.9H854c-1.8-5.5-8.4-16.8-34.2-16.8C791.4,41.7,784,58,784,71.9V74c0,13.1,7.6,31,36,31
				c27.2,0,33-12.7,34.3-17.9L894.3,87L894.3,87z"/>
			<path class="st0" d="M899,44V13.7h143.2V44h-52.4v89.7h-38.4V44H899z"/>
		</g>
		<g>
			<path class="st0" d="M1058.4,21.3v-6.9h32.4v6.9H1079v20.3h-8.7V21.3H1058.4z"/>
			<path class="st0" d="M1104.7,14.5l8,16.9l8.2-16.9h11.2v27.2h-8.6V24.3l-8.2,17.4h-6.1l-8.1-17.4v17.4h-8.4V14.5H1104.7z"/>
		</g>
	</g>
	<path class="st0" d="M473.8,13.5h84.5c41.3,0,53.1,16.6,53.1,40.2v1.9c0,23.4-12.1,40.8-53.1,40.8h-46v37.1h-38.5L473.8,13.5
		L473.8,13.5z M555.1,67.7c12.1,0,16.3-5,16.3-12.6v-0.5c0-7.1-4.2-12.3-16.3-12.3h-42.8v25.3H555.1z"/>
</g>
</svg>
